<svg width="549" height="542" viewBox="0 0 549 542" fill="none" xmlns="http://www.w3.org/2000/svg">
<path d="M265.608 461.2C267.671 459.796 270.005 458.842 272.461 458.399C274.916 457.955 277.437 458.033 279.861 458.627C282.284 459.221 284.556 460.318 286.528 461.847C288.5 463.375 290.128 465.302 291.308 467.5C294.981 463.69 299.98 461.44 305.268 461.217C310.555 460.994 315.726 462.814 319.708 466.3C320.567 463.181 322.088 460.284 324.169 457.806C326.249 455.329 328.839 453.329 331.763 451.943C334.686 450.557 337.874 449.818 341.109 449.776C344.344 449.734 347.55 450.391 350.508 451.7C350.633 445.293 353.213 439.178 357.717 434.619C362.22 430.06 368.303 427.404 374.708 427.2C371.269 420.014 370.788 411.766 373.369 404.229C375.95 396.692 381.386 390.47 388.508 386.9C384.383 382.517 381.956 376.807 381.663 370.795C381.37 364.783 383.229 358.864 386.908 354.1C381.935 351.414 378.107 347.012 376.139 341.714C374.17 336.415 374.195 330.582 376.208 325.3C373.334 325.002 370.553 324.114 368.039 322.691C365.524 321.269 363.33 319.343 361.594 317.034C359.857 314.725 358.616 312.083 357.947 309.272C357.279 306.462 357.197 303.544 357.708 300.7H354.508C346.508 300.7 339.908 295.7 338.708 288.1V287.7C336.655 289.116 334.289 290.013 331.814 290.312C329.338 290.612 326.827 290.306 324.496 289.421C322.164 288.536 320.083 287.098 318.43 285.23C316.778 283.363 315.603 281.122 315.008 278.7C313.663 279.393 312.171 279.755 310.658 279.755C309.145 279.755 307.653 279.393 306.308 278.7C304.938 283.91 302.171 288.647 298.308 292.4C299.561 292.968 300.675 293.8 301.575 294.841C302.474 295.881 303.137 297.105 303.517 298.427C303.898 299.748 303.987 301.137 303.778 302.496C303.569 303.856 303.067 305.154 302.308 306.3C304.879 306.967 307.233 308.286 309.143 310.132C311.053 311.977 312.454 314.284 313.208 316.83C313.963 319.377 314.047 322.075 313.451 324.663C312.855 327.251 311.6 329.64 309.808 331.6C312.588 332.938 314.952 335.007 316.646 337.586C318.34 340.165 319.3 343.157 319.423 346.24C319.547 349.323 318.828 352.381 317.346 355.087C315.863 357.793 313.673 360.045 311.008 361.6C312.608 363.6 314.208 365.2 315.008 367.9C316.456 370.764 317.228 373.922 317.265 377.131C317.303 380.34 316.604 383.514 315.223 386.411C313.843 389.308 311.816 391.85 309.3 393.841C306.784 395.833 303.844 397.222 300.708 397.9C302.557 401.58 303.397 405.684 303.144 409.794C302.891 413.904 301.553 417.874 299.266 421.299C296.979 424.723 293.826 427.481 290.127 429.291C286.428 431.1 282.315 431.897 278.208 431.6C278.603 436.744 277.417 441.886 274.807 446.337C272.198 450.787 268.29 454.333 263.608 456.5L265.608 461.6" fill="black"/>
<path d="M500.707 331.6C497.631 336.705 492.677 340.403 486.907 341.9C489.209 345.145 490.542 348.976 490.751 352.949C490.96 356.921 490.037 360.872 488.088 364.34C486.139 367.808 483.245 370.651 479.743 372.538C476.242 374.425 472.276 375.279 468.307 375V374.3C469.037 377.471 468.883 380.781 467.863 383.871C466.843 386.961 464.995 389.712 462.521 391.825C460.047 393.938 457.041 395.333 453.83 395.857C450.619 396.382 447.325 396.016 444.307 394.8C443.944 397.928 442.58 400.855 440.417 403.143C438.254 405.432 435.41 406.96 432.307 407.5C433.048 410.86 433.048 414.341 432.307 417.7C431.328 425.502 427.365 432.62 421.249 437.561C415.133 442.503 407.34 444.882 399.507 444.2C401.057 448.956 401.161 454.064 399.809 458.879C398.456 463.694 395.707 468 391.908 471.253C388.109 474.507 383.431 476.561 378.465 477.156C373.499 477.752 368.468 476.863 364.007 474.6C363.571 478.845 361.937 482.878 359.295 486.229C356.653 489.58 353.113 492.11 349.088 493.526C345.062 494.941 340.717 495.182 336.56 494.222C332.403 493.261 328.604 491.138 325.607 488.1C324.149 491.885 321.626 495.167 318.343 497.549C315.06 499.931 311.157 501.312 307.106 501.523C303.055 501.735 299.03 500.768 295.516 498.741C292.003 496.714 289.152 493.713 287.307 490.1C284.879 492.177 281.936 493.561 278.788 494.108C275.64 494.655 272.403 494.344 269.416 493.209C266.429 492.074 263.803 490.155 261.813 487.655C259.824 485.155 258.544 482.166 258.107 479L251.307 480.2C247.688 480.111 244.231 478.681 241.607 476.186C238.983 473.691 237.379 470.311 237.107 466.7C233.96 472.246 228.918 476.471 222.907 478.6C215.62 481.614 207.44 481.647 200.128 478.692C192.816 475.737 186.956 470.031 183.807 462.8C180.364 466.374 175.946 468.855 171.103 469.937C166.26 471.018 161.205 470.651 156.569 468.882C151.933 467.113 147.919 464.019 145.028 459.986C142.136 455.953 140.495 451.159 140.307 446.2C136.339 447.838 131.986 448.307 127.76 447.551C123.534 446.795 119.613 444.845 116.459 441.933C113.305 439.021 111.05 435.268 109.96 431.115C108.87 426.963 108.991 422.586 110.307 418.5C106.257 419.08 102.125 418.463 98.4198 416.727C94.7146 414.99 91.5976 412.208 89.4519 408.724C87.3061 405.24 86.225 401.205 86.3415 397.114C86.4579 393.024 87.7669 389.057 90.1074 385.7C87.0805 384.561 84.4211 382.62 82.4147 380.083C80.4084 377.547 79.131 374.512 78.7197 371.304C78.3085 368.096 78.7789 364.837 80.0805 361.876C81.3821 358.916 83.4657 356.366 86.1074 354.5C83.1775 352.418 81.1187 349.328 80.3253 345.822C79.5319 342.316 80.0596 338.641 81.8074 335.5H82.2074C78.1606 334.783 74.3699 333.025 71.2074 330.4C64.8685 325.552 60.6587 318.433 59.4649 310.543C58.2711 302.652 60.1864 294.606 64.8074 288.1C59.9998 286.946 55.6358 284.408 52.2549 280.8C48.874 277.192 46.6243 272.673 45.7839 267.8C44.9435 262.928 45.5491 257.916 47.526 253.384C49.5029 248.852 52.7644 244.999 56.9074 242.3C53.4521 239.688 50.8243 236.134 49.3394 232.065C47.8546 227.996 47.5759 223.584 48.5368 219.361C49.4976 215.137 51.6573 211.281 54.7563 208.254C57.8554 205.228 61.7621 203.161 66.0074 202.3C63.6124 199.085 62.188 195.251 61.9026 191.251C61.6172 187.252 62.4826 183.254 64.3967 179.731C66.3108 176.208 69.1934 173.307 72.704 171.37C76.2146 169.432 80.2063 168.541 84.2074 168.8V169.1C83.601 165.927 83.8697 162.648 84.9847 159.616C86.0998 156.583 88.0191 153.912 90.537 151.887C93.0548 149.863 96.0762 148.562 99.2772 148.123C102.478 147.685 105.738 148.127 108.707 149.4C108.998 146.247 110.307 143.273 112.435 140.928C114.564 138.583 117.397 136.994 120.507 136.4L121.307 137.5C120.03 132.806 119.897 127.874 120.921 123.118C121.945 118.362 124.095 113.921 127.191 110.169C130.287 106.416 134.239 103.461 138.714 101.553C143.188 99.6441 148.056 98.8374 152.907 99.2002L151.807 90.5002C152.019 86.2894 153.28 82.1983 155.475 78.5986C157.67 74.9989 160.729 72.0048 164.376 69.8885C168.022 67.7721 172.14 66.6006 176.354 66.4804C180.569 66.3602 184.746 67.2951 188.507 69.2002C188.896 64.8933 190.517 60.7895 193.177 57.38C195.837 53.9704 199.423 51.3997 203.506 49.9753C207.589 48.551 211.996 48.3335 216.199 49.3488C220.403 50.3641 224.225 52.5692 227.207 55.7002C228.651 51.8871 231.174 48.5767 234.467 46.1731C237.761 43.7696 241.683 42.3768 245.755 42.1647C249.826 41.9526 253.872 42.9305 257.397 44.9789C260.923 47.0273 263.775 50.0577 265.607 53.7002C268.093 51.7138 271.065 50.4298 274.215 49.982C277.365 49.5341 280.578 49.9388 283.518 51.1538C286.459 52.3688 289.02 54.3497 290.935 56.8905C292.85 59.4312 294.049 62.4388 294.407 65.6002C296.528 64.47 298.896 63.8809 301.299 63.8851C303.702 63.8893 306.067 64.4868 308.184 65.6244C310.301 66.7621 312.105 68.4047 313.435 70.4066C314.764 72.4085 315.579 74.7077 315.807 77.1002C319.045 71.5382 324.04 67.211 330.007 64.8002C345.807 58.8002 362.407 66.4002 368.707 81.0002C372.126 77.2896 376.577 74.6861 381.487 73.5241C386.397 72.3621 391.542 72.6948 396.262 74.4794C400.981 76.264 405.059 79.419 407.972 83.539C410.885 87.659 412.499 92.5558 412.607 97.6002C416.575 95.9623 420.929 95.4937 425.155 96.2498C429.381 97.0058 433.302 98.9549 436.456 101.867C439.61 104.779 441.865 108.533 442.955 112.685C444.045 116.837 443.924 121.214 442.607 125.3C446.626 124.812 450.7 125.495 454.339 127.268C457.978 129.041 461.028 131.828 463.12 135.294C465.212 138.76 466.258 142.756 466.131 146.802C466.005 150.848 464.712 154.772 462.407 158.1C466.707 159.7 470.307 162.8 472.307 166.4C474.089 170.29 474.505 174.668 473.489 178.824C472.472 182.98 470.083 186.671 466.707 189.3C469.654 191.368 471.733 194.451 472.545 197.958C473.357 201.465 472.845 205.148 471.107 208.3C475.922 209.532 480.361 211.925 484.036 215.271C487.711 218.616 490.509 222.811 492.187 227.489C493.865 232.166 494.37 237.184 493.659 242.102C492.948 247.02 491.041 251.689 488.107 255.7C490.975 256.301 493.673 257.531 496.007 259.3C499.494 261.607 502.354 264.741 504.333 268.423C506.312 272.105 507.347 276.22 507.347 280.4C507.347 284.58 506.312 288.695 504.333 292.377C502.354 296.059 499.494 299.194 496.007 301.5C500.46 304.954 503.454 309.952 504.398 315.507C505.342 321.062 504.168 326.769 501.107 331.5M523.207 0.000207488H24.2074C21.0342 -0.0129597 17.8895 0.600688 14.954 1.80593C12.0185 3.01117 9.34996 4.78428 7.10147 7.02348C4.85297 9.26268 3.06883 11.9239 1.85144 14.8544C0.634058 17.7849 0.00739454 20.9269 0.00742186 24.1002V517C-0.0722434 520.229 0.490104 523.442 1.66184 526.453C2.83358 529.463 4.59139 532.211 6.83329 534.536C9.0752 536.862 11.7566 538.719 14.7219 540C17.6872 541.282 20.8774 541.961 24.1074 542H523.207C537.107 542 548.207 530.9 548.207 517V24.1002C548.207 11.1002 537.107 0.000207488 523.207 0.000207488Z" fill="black"/>
<path d="M261.208 76.3002C257.535 80.1101 252.536 82.36 247.248 82.5834C241.961 82.8068 236.79 80.9866 232.808 77.5002C231.942 80.5811 230.428 83.4418 228.368 85.8912C226.308 88.3406 223.75 90.3223 220.863 91.7042C217.976 93.086 214.828 93.8361 211.628 93.9044C208.429 93.9727 205.251 93.3576 202.308 92.1002C202.116 98.4517 199.54 104.498 195.093 109.037C190.646 113.577 184.654 116.277 178.308 116.6C181.74 123.798 182.206 132.056 179.606 139.595C177.006 147.133 171.548 153.348 164.408 156.9C168.533 161.284 170.96 166.994 171.253 173.005C171.546 179.017 169.687 184.936 166.008 189.7C170.982 192.386 174.809 196.788 176.777 202.087C178.746 207.385 178.721 213.219 176.708 218.5C179.536 218.85 182.264 219.772 184.724 221.21C187.185 222.647 189.327 224.571 191.02 226.863C192.713 229.155 193.922 231.768 194.574 234.542C195.225 237.316 195.305 240.194 194.808 243H198.008C205.908 243 213.008 248.2 213.808 255.7C215.894 254.285 218.296 253.403 220.803 253.133C223.309 252.863 225.844 253.212 228.184 254.15C230.524 255.088 232.598 256.586 234.223 258.513C235.849 260.439 236.977 262.736 237.508 265.2C238.789 264.38 240.247 263.88 241.761 263.741C243.275 263.602 244.8 263.828 246.208 264.4C247.211 259.179 249.516 254.294 252.908 250.2L250.208 246.6C248.608 243.8 249.408 240.3 250.208 237.6C247.643 236.905 245.302 235.557 243.412 233.688C241.522 231.82 240.148 229.494 239.423 226.937C238.698 224.38 238.647 221.679 239.276 219.097C239.904 216.514 241.19 214.138 243.008 212.2C240.153 210.853 237.73 208.738 236.009 206.092C234.288 203.446 233.338 200.372 233.266 197.216C233.193 194.061 234.001 190.947 235.598 188.224C237.195 185.501 239.518 183.277 242.308 181.8C239.58 179.207 237.6 175.929 236.573 172.308C235.546 168.687 235.511 164.857 236.472 161.218C237.433 157.579 239.354 154.266 242.034 151.624C244.715 148.982 248.056 147.108 251.708 146.2C249.753 142.471 248.845 138.282 249.08 134.078C249.315 129.874 250.685 125.812 253.044 122.325C255.404 118.837 258.664 116.054 262.478 114.271C266.293 112.489 270.519 111.773 274.708 112.2C274.313 107.056 275.499 101.914 278.109 97.4638C280.718 93.0133 284.626 89.4669 289.308 87.3002L287.308 82.2002C284.365 84.8213 280.549 86.248 276.608 86.2002C269.908 86.2002 264.808 81.8002 261.208 76.2002M444.208 262C440.189 258.916 437.004 254.876 434.944 250.248C432.883 245.62 432.011 240.551 432.408 235.5C426.498 236.751 420.336 235.845 415.035 232.947C409.734 230.049 405.646 225.35 403.508 219.7C398.718 222.281 393.176 223.104 387.842 222.026C382.509 220.949 377.721 218.038 374.308 213.8C372.573 216.155 370.366 218.121 367.827 219.572C365.288 221.024 362.475 221.93 359.566 222.231C356.657 222.532 353.717 222.222 350.935 221.322C348.152 220.421 345.589 218.949 343.408 217L342.008 220C340.003 223.15 337.017 225.552 333.51 226.835C330.004 228.118 326.173 228.211 322.608 227.1C322.608 230.3 321.408 233.5 319.808 235.8C318.045 238.663 315.371 240.85 312.215 242.01C309.06 243.171 305.606 243.238 302.408 242.2C302.405 243.518 302.128 244.821 301.595 246.026C301.061 247.231 300.282 248.312 299.308 249.2C302.635 252.887 305.186 257.206 306.808 261.9L310.808 260.7C314.308 260.7 317.408 262.7 318.608 265.5C320.385 263.481 322.66 261.963 325.207 261.096C327.753 260.229 330.482 260.045 333.122 260.561C335.762 261.077 338.22 262.275 340.253 264.036C342.286 265.798 343.822 268.061 344.708 270.6C347.78 268.302 351.583 267.2 355.408 267.5C359.777 267.706 363.898 269.588 366.915 272.754C369.932 275.92 371.613 280.127 371.608 284.5C375.352 282.985 379.452 282.582 383.419 283.338C387.386 284.095 391.051 285.979 393.974 288.765C396.897 291.551 398.955 295.121 399.901 299.047C400.848 302.973 400.642 307.088 399.308 310.9C403.352 311.12 407.269 312.391 410.673 314.587C414.076 316.783 416.848 319.828 418.716 323.422C420.583 327.016 421.482 331.034 421.323 335.081C421.164 339.128 419.952 343.064 417.808 346.5C423.479 349.242 427.923 353.999 430.271 359.843C432.62 365.687 432.704 372.197 430.508 378.1H433.208C433.168 375.738 433.599 373.391 434.476 371.196C435.353 369.002 436.658 367.004 438.314 365.319C439.971 363.635 441.947 362.296 444.126 361.383C446.306 360.47 448.645 360 451.008 360C449.683 354.805 450.435 349.298 453.105 344.648C455.775 339.999 460.153 336.574 465.308 335.1C462.979 332.77 461.191 329.957 460.068 326.86C458.946 323.762 458.518 320.456 458.813 317.175C459.109 313.894 460.122 310.718 461.779 307.871C463.437 305.024 465.7 302.576 468.408 300.7C463.211 297.153 459.522 291.797 458.062 285.677C456.601 279.557 457.473 273.112 460.508 267.6C454.79 267.41 449.27 265.454 444.708 262" fill="black"/>
<path d="M445.808 192.9L447.808 190.9C445.6 189.787 443.649 188.226 442.078 186.318C440.507 184.409 439.35 182.194 438.682 179.814C438.014 177.434 437.85 174.941 438.198 172.494C438.547 170.046 439.402 167.698 440.708 165.6C435.587 164.04 431.255 160.584 428.597 155.937C425.939 151.291 425.156 145.804 426.408 140.6C423.256 141.409 419.965 141.525 416.763 140.94C413.562 140.355 410.525 139.082 407.864 137.209C405.202 135.336 402.978 132.908 401.345 130.092C399.713 127.277 398.711 124.14 398.408 120.9C392.695 123.603 386.185 124.098 380.129 122.288C374.074 120.479 368.901 116.494 365.608 111.1C360.994 117.614 354.003 122.052 346.145 123.455C338.286 124.858 330.191 123.114 323.608 118.6C321.715 124.293 317.86 129.129 312.731 132.243C307.602 135.357 301.533 136.546 295.608 135.6C295.579 141.135 293.581 146.479 289.972 150.675C286.362 154.871 281.377 157.644 275.908 158.5C277.013 161.181 277.551 164.062 277.488 166.962C277.425 169.861 276.762 172.716 275.54 175.347C274.319 177.977 272.566 180.326 270.392 182.246C268.218 184.165 265.67 185.614 262.908 186.5L264.408 189.3C268.408 196.4 266.808 205.1 260.808 209.9H260.408C262.532 211.035 264.36 212.652 265.745 214.622C267.13 216.592 268.034 218.859 268.384 221.242C268.734 223.625 268.521 226.056 267.761 228.341C267.001 230.626 265.715 232.701 264.008 234.4C266.057 235.773 267.491 237.888 268.008 240.3C273.183 238.907 278.633 238.907 283.808 240.3C284.137 238.195 285.164 236.262 286.723 234.811C288.283 233.36 290.285 232.476 292.408 232.3C291.539 229.663 291.398 226.84 292.002 224.13C292.605 221.421 293.93 218.924 295.836 216.906C297.742 214.887 300.158 213.421 302.829 212.663C305.5 211.905 308.326 211.883 311.008 212.6C310.208 209.1 311.008 205.6 313.408 202.3C318.908 194.4 328.808 191.7 336.708 197.3C337.481 193.567 339.255 190.116 341.84 187.315C344.426 184.515 347.724 182.47 351.383 181.402C355.041 180.333 358.922 180.28 362.608 181.249C366.294 182.217 369.647 184.171 372.308 186.9C374.567 183.399 377.723 180.569 381.447 178.703C385.172 176.836 389.328 176.003 393.484 176.289C397.64 176.575 401.644 177.97 405.077 180.328C408.511 182.687 411.25 185.923 413.008 189.7C417.956 186.226 423.984 184.64 430 185.227C436.017 185.814 441.625 188.536 445.808 192.9ZM284.908 305.5C284.508 303.9 284.208 301.9 284.508 300.4C279.455 301.686 274.161 301.686 269.108 300.4C269.108 302.4 269.108 305.1 267.608 307.1C266.86 308.359 265.81 309.412 264.553 310.162C263.296 310.913 261.871 311.339 260.408 311.4C261.292 314.032 261.448 316.855 260.859 319.569C260.27 322.282 258.958 324.787 257.062 326.816C255.166 328.845 252.756 330.324 250.089 331.095C247.421 331.867 244.594 331.903 241.908 331.2C242.132 334.303 241.499 337.409 240.079 340.178C238.659 342.947 236.506 345.273 233.855 346.903C231.204 348.533 228.157 349.403 225.045 349.42C221.933 349.438 218.877 348.6 216.208 347C216.208 349.4 214.608 352.1 213.408 353.7C211.702 356.438 209.389 358.746 206.647 360.445C203.906 362.145 200.809 363.19 197.598 363.499C194.387 363.809 191.149 363.374 188.133 362.23C185.117 361.085 182.405 359.261 180.208 356.9C177.949 360.4 174.793 363.23 171.069 365.097C167.344 366.963 163.188 367.796 159.032 367.51C154.876 367.224 150.872 365.83 147.439 363.471C144.005 361.112 141.266 357.876 139.508 354.1C134.595 357.465 128.651 358.989 122.725 358.404C116.798 357.818 111.268 355.161 107.108 350.9C106.376 351.644 105.572 352.314 104.708 352.9C108.21 354.575 111.033 357.398 112.708 360.9C114.171 363.567 114.896 366.576 114.808 369.618C114.72 372.659 113.823 375.621 112.208 378.2C117.329 379.759 121.661 383.215 124.319 387.862C126.977 392.509 127.76 397.995 126.508 403.2C129.633 402.456 132.882 402.391 136.035 403.007C139.187 403.624 142.172 404.909 144.786 406.775C147.401 408.642 149.586 411.046 151.194 413.828C152.802 416.609 153.795 419.702 154.108 422.9C159.821 420.196 166.331 419.702 172.387 421.511C178.442 423.32 183.615 427.305 186.908 432.7C189.16 429.389 192.051 426.563 195.412 424.387C198.773 422.212 202.535 420.731 206.477 420.032C210.419 419.333 214.461 419.43 218.365 420.318C222.269 421.205 225.956 422.865 229.208 425.2C231.093 419.564 234.902 414.772 239.967 411.664C245.032 408.555 251.03 407.329 256.908 408.2C256.951 402.605 259.006 397.213 262.696 393.009C266.386 388.804 271.467 386.068 277.008 385.3C275.897 382.638 275.346 379.775 275.389 376.891C275.433 374.006 276.071 371.162 277.262 368.535C278.454 365.908 280.174 363.554 282.315 361.621C284.457 359.688 286.973 358.217 289.708 357.3L288.108 354.5C284.508 347.4 286.108 338.7 292.108 333.9C289.308 332.4 286.508 330.4 285.708 327.6C284.264 324.614 283.796 321.25 284.37 317.983C284.944 314.716 286.532 311.714 288.908 309.4C287.308 308.7 286.108 307.1 284.908 305.4" fill="black"/>
<path d="M247.808 281.4C246.715 282.17 245.471 282.7 244.159 282.956C242.846 283.213 241.495 283.189 240.192 282.887C238.89 282.585 237.665 282.011 236.6 281.203C235.534 280.396 234.651 279.372 234.008 278.2C232.22 280.122 229.97 281.554 227.472 282.362C224.974 283.17 222.311 283.326 219.736 282.815C217.161 282.304 214.76 281.143 212.759 279.442C210.759 277.742 209.227 275.559 208.308 273.1C205.191 275.305 201.422 276.397 197.608 276.2C193.239 275.994 189.118 274.112 186.101 270.946C183.084 267.78 181.403 263.573 181.408 259.2C177.787 260.416 173.903 260.621 170.174 259.794C166.444 258.967 163.012 257.138 160.245 254.505C157.477 251.871 155.481 248.533 154.47 244.85C153.459 241.166 153.472 237.276 154.508 233.6C150.236 233.679 146.025 232.583 142.334 230.43C138.644 228.277 135.616 225.151 133.582 221.394C131.549 217.636 130.588 213.392 130.804 209.125C131.02 204.858 132.405 200.732 134.808 197.2C129.138 194.458 124.694 189.7 122.345 183.856C119.996 178.012 119.912 171.503 122.108 165.6C121.309 165.66 120.507 165.66 119.708 165.6C119.762 167.996 119.332 170.379 118.443 172.605C117.554 174.831 116.224 176.854 114.534 178.554C112.843 180.254 110.827 181.594 108.606 182.496C106.385 183.397 104.005 183.841 101.608 183.8C102.831 188.99 102.034 194.451 99.3786 199.076C96.723 203.7 92.4076 207.14 87.308 208.7C89.619 211.029 91.3925 213.836 92.5042 216.923C93.6159 220.01 94.0389 223.303 93.7436 226.571C93.4482 229.839 92.4416 233.003 90.7944 235.841C89.1472 238.679 86.8992 241.122 84.208 243C89.4305 246.549 93.1368 251.924 94.5986 258.067C96.0604 264.21 95.172 270.678 92.108 276.2C97.608 276.2 103.108 278.2 107.908 281.8C112 284.84 115.263 288.86 117.395 293.491C119.526 298.121 120.46 303.214 120.108 308.3C126.006 307.043 132.158 307.934 137.457 310.813C142.756 313.691 146.852 318.368 149.008 324C153.84 321.311 159.47 320.428 164.892 321.509C170.315 322.59 175.177 325.564 178.608 329.9C180.343 327.607 182.53 325.695 185.033 324.281C187.537 322.868 190.305 321.984 193.164 321.684C196.023 321.384 198.914 321.675 201.656 322.537C204.399 323.4 206.935 324.817 209.108 326.7L210.608 323.6C212.633 320.366 215.687 317.907 219.278 316.62C222.869 315.332 226.79 315.29 230.408 316.5C230.408 313.3 231.208 310.1 232.808 307.8C236.808 301.8 243.408 299.1 250.208 301.4C250.192 299.574 250.702 297.783 251.678 296.24C252.653 294.697 254.052 293.468 255.708 292.7C252.198 289.409 249.466 285.378 247.708 280.9" fill="black"/>
</svg>
