<svg width="1976" height="926" viewBox="0 0 1976 926" fill="none" xmlns="http://www.w3.org/2000/svg">
<path d="M137.5 549.969C155.99 561.427 170.443 574.318 180.859 588.641C191.276 602.703 198.568 620.802 202.734 642.938C206.901 664.812 208.984 692.938 208.984 727.312C208.984 753.094 209.505 772.104 210.547 784.344C211.849 796.583 214.193 805.828 217.578 812.078C221.224 818.589 225.521 822.755 230.469 824.578C235.417 826.661 243.88 828.615 255.859 830.438C265.755 831.74 273.958 836.557 280.469 844.891C286.979 853.224 290.234 864.161 290.234 877.703C290.234 909.214 271.094 924.969 232.812 924.969C209.115 924.969 187.891 920.021 169.141 910.125C150.651 900.229 136.328 886.167 126.172 867.938C116.016 849.969 110.807 829.266 110.547 805.828C109.766 766.245 108.984 734.474 108.203 710.516C107.422 686.557 106.25 671.062 104.688 664.031C100.781 646.583 94.9219 633.432 87.1094 624.578C79.5573 615.724 69.5312 607.521 57.0312 599.969C44.7917 592.156 36.0677 585.255 30.8594 579.266C25.651 573.016 23.0469 563.25 23.0469 549.969C23.0469 530.698 30.599 516.245 45.7031 506.609C64.4531 494.891 77.7344 484.995 85.5469 476.922C93.6198 468.589 99.2188 458.042 102.344 445.281C105.729 432.26 107.682 418.198 108.203 403.094C108.724 387.729 109.505 351.01 110.547 292.938C111.328 257 122.656 228.354 144.531 207C166.667 185.385 196.094 174.578 232.812 174.578C271.094 174.578 290.234 190.073 290.234 221.062C290.234 235.125 286.979 246.193 280.469 254.266C274.219 262.339 266.016 267.026 255.859 268.328C240.755 270.411 230.208 273.536 224.219 277.703C218.229 281.87 214.323 289.943 212.5 301.922C210.677 313.901 209.505 337.078 208.984 371.453C208.464 405.047 206.38 432.651 202.734 454.266C199.349 475.62 192.448 493.849 182.031 508.953C171.875 524.057 157.031 537.729 137.5 549.969ZM310.203 549.969C310.203 510.646 313.589 473.927 320.359 439.812C327.13 405.438 337.417 371.714 351.219 338.641C365.021 305.307 382.078 271.974 402.391 238.641C414.63 218.328 424.917 203.745 433.25 194.891C441.583 185.776 449.396 180.177 456.688 178.094C464.24 175.75 473.875 174.578 485.594 174.578C498.354 174.578 504.734 178.094 504.734 185.125C504.734 187.469 498.745 201.661 486.766 227.703C474.786 253.484 463.458 280.568 452.781 308.953C442.365 337.339 432.599 372.755 423.484 415.203C414.63 457.651 410.203 502.573 410.203 549.969C410.203 596.844 414.63 641.245 423.484 683.172C432.339 725.099 442.365 761.427 453.562 792.156C465.021 822.885 476.349 850.359 487.547 874.578C499.005 899.057 504.734 912.339 504.734 914.422C504.734 921.453 498.354 924.969 485.594 924.969C473.615 924.969 463.849 923.667 456.297 921.062C449.005 918.719 441.323 912.99 433.25 903.875C425.177 894.76 414.891 880.177 402.391 860.125C381.818 825.75 364.76 792.547 351.219 760.516C337.938 728.745 327.781 695.672 320.75 661.297C313.719 626.922 310.203 589.812 310.203 549.969ZM1665.39 549.969C1665.39 607.26 1657.7 660.516 1642.34 709.734C1627.24 758.953 1604.19 809.083 1573.2 860.125C1555.75 888.771 1541.95 906.74 1531.79 914.031C1521.64 921.323 1507.83 924.969 1490.39 924.969C1477.37 924.969 1470.86 921.453 1470.86 914.422C1470.86 912.078 1476.32 899.448 1487.26 876.531C1498.2 853.875 1509.53 826.792 1521.25 795.281C1533.23 763.771 1543.51 726.792 1552.11 684.344C1560.96 641.635 1565.39 596.844 1565.39 549.969C1565.39 502.833 1560.96 457.911 1552.11 415.203C1543.25 372.495 1532.96 335.516 1521.25 304.266C1509.53 273.016 1498.2 245.932 1487.26 223.016C1476.32 199.839 1470.86 187.208 1470.86 185.125C1470.86 178.094 1477.37 174.578 1490.39 174.578C1508.62 174.578 1522.68 178.094 1532.57 185.125C1542.47 191.896 1556.01 209.734 1573.2 238.641C1588.56 264.161 1601.98 289.292 1613.43 314.031C1624.89 338.771 1634.4 363.51 1641.95 388.25C1649.76 412.99 1655.62 438.771 1659.53 465.594C1663.43 492.417 1665.39 520.542 1665.39 549.969ZM1837.7 549.969C1823.64 541.115 1812.18 531.87 1803.32 522.234C1794.47 512.599 1787.18 500.88 1781.45 487.078C1775.72 473.276 1771.68 457 1769.34 438.25C1767 419.24 1765.82 396.974 1765.82 371.453C1765.82 346.714 1765.3 327.833 1764.26 314.812C1763.22 301.531 1761.14 291.896 1758.01 285.906C1754.89 279.917 1750.46 275.88 1744.73 273.797C1739.26 271.453 1730.8 269.63 1719.34 268.328C1709.7 267.026 1701.5 262.339 1694.73 254.266C1688.22 246.193 1684.96 235.125 1684.96 221.062C1684.96 190.073 1703.85 174.578 1741.61 174.578C1765.82 174.578 1787.05 179.526 1805.28 189.422C1823.77 199.057 1838.22 212.99 1848.64 231.219C1859.31 249.188 1864.78 269.76 1865.04 292.938C1866.61 379.396 1868.43 426.922 1870.51 435.516C1874.68 452.703 1880.8 465.854 1888.87 474.969C1896.94 483.823 1906.71 491.766 1918.17 498.797C1929.63 505.568 1938.09 512.339 1943.56 519.109C1949.29 525.88 1952.15 536.167 1952.15 549.969C1952.15 569.5 1944.73 583.823 1929.89 592.938C1911.66 604.135 1898.38 614.031 1890.04 622.625C1881.97 630.958 1876.24 641.505 1872.86 654.266C1869.73 666.766 1867.78 685.646 1867 710.906C1866.48 736.167 1865.82 767.807 1865.04 805.828C1864.26 841.766 1852.67 870.542 1830.28 892.156C1808.14 914.031 1778.58 924.969 1741.61 924.969C1723.38 924.969 1709.31 920.932 1699.42 912.859C1689.78 904.786 1684.96 893.068 1684.96 877.703C1684.96 869.109 1686.53 861.167 1689.65 853.875C1692.78 846.844 1696.81 841.375 1701.76 837.469C1706.97 833.562 1712.83 831.219 1719.34 830.438C1731.06 828.875 1739.78 826.922 1745.51 824.578C1751.24 822.234 1755.54 817.807 1758.4 811.297C1761.53 804.786 1763.48 795.151 1764.26 782.391C1765.3 769.891 1765.82 751.531 1765.82 727.312C1766.35 691.375 1768.43 663.25 1772.07 642.938C1775.72 622.625 1782.62 605.177 1792.78 590.594C1802.93 576.01 1817.91 562.469 1837.7 549.969Z" fill="#C8CECC"/>
<path d="M912.439 712.908C889.881 730.454 868.006 743.67 846.814 752.557C825.851 761.215 802.267 765.545 776.062 765.545C752.137 765.545 731.059 760.874 712.83 751.531C694.829 741.961 680.929 729.087 671.131 712.908C661.333 696.73 656.434 679.184 656.434 660.271C656.434 634.751 664.523 612.99 680.701 594.988C696.88 576.987 719.096 564.91 747.352 558.758C753.276 557.391 767.973 554.314 791.443 549.529C814.913 544.744 834.965 540.415 851.6 536.541C868.462 532.439 886.691 527.54 906.287 521.844C905.148 497.234 900.135 479.233 891.248 467.84C882.589 456.219 864.474 450.408 836.902 450.408C813.204 450.408 795.317 453.712 783.24 460.32C771.391 466.928 761.137 476.84 752.479 490.057C744.048 503.273 738.009 512.046 734.363 516.375C730.945 520.477 723.426 522.527 711.805 522.527C701.323 522.527 692.208 519.223 684.461 512.615C676.941 505.779 673.182 497.12 673.182 486.639C673.182 470.232 678.992 454.282 690.613 438.787C702.234 423.292 720.35 410.532 744.959 400.506C769.568 390.48 800.216 385.467 836.902 385.467C877.918 385.467 910.161 390.366 933.631 400.164C957.101 409.734 973.621 425.001 983.191 445.965C992.99 466.928 997.889 494.728 997.889 529.363C997.889 551.238 997.775 569.809 997.547 585.076C997.547 600.343 997.433 617.319 997.205 636.004C997.205 653.549 1000.05 671.893 1005.75 691.033C1011.67 709.946 1014.64 722.137 1014.64 727.605C1014.64 737.176 1010.08 745.949 1000.96 753.924C992.078 761.671 981.938 765.545 970.545 765.545C960.975 765.545 951.518 761.102 942.176 752.215C932.833 743.1 922.921 729.998 912.439 712.908ZM906.287 577.898C892.615 582.911 872.677 588.266 846.473 593.963C820.496 599.432 802.495 603.533 792.469 606.268C782.443 608.774 772.872 613.901 763.758 621.648C754.643 629.168 750.086 639.764 750.086 653.436C750.086 667.563 755.441 679.64 766.15 689.666C776.86 699.464 790.874 704.363 808.191 704.363C826.648 704.363 843.624 700.376 859.119 692.4C874.842 684.197 886.349 673.715 893.641 660.955C902.072 646.827 906.287 623.585 906.287 591.229V577.898ZM1050.91 708.807V304.119C1050.91 285.434 1055.01 271.307 1063.21 261.736C1071.64 252.166 1082.92 247.381 1097.05 247.381C1111.18 247.381 1122.57 252.166 1131.23 261.736C1139.89 271.079 1144.22 285.206 1144.22 304.119V708.807C1144.22 727.719 1139.78 741.961 1130.89 751.531C1122.23 760.874 1110.95 765.545 1097.05 765.545C1083.38 765.545 1072.21 760.646 1063.55 750.848C1055.12 741.049 1050.91 727.036 1050.91 708.807ZM1198.95 708.807V304.119C1198.95 285.434 1203.05 271.307 1211.25 261.736C1219.68 252.166 1230.96 247.381 1245.09 247.381C1259.22 247.381 1270.61 252.166 1279.27 261.736C1287.93 271.079 1292.26 285.206 1292.26 304.119V708.807C1292.26 727.719 1287.81 741.961 1278.93 751.531C1270.27 760.874 1258.99 765.545 1245.09 765.545C1231.42 765.545 1220.25 760.646 1211.59 750.848C1203.16 741.049 1198.95 727.036 1198.95 708.807Z" fill="white"/>
</svg>
