<svg width="1411" height="751" viewBox="0 0 1411 751" fill="none" xmlns="http://www.w3.org/2000/svg">
<path d="M114.5 375.969C132.99 387.427 147.443 400.318 157.859 414.641C168.276 428.703 175.568 446.802 179.734 468.938C183.901 490.812 185.984 518.938 185.984 553.312C185.984 579.094 186.505 598.104 187.547 610.344C188.849 622.583 191.193 631.828 194.578 638.078C198.224 644.589 202.521 648.755 207.469 650.578C212.417 652.661 220.88 654.615 232.859 656.438C242.755 657.74 250.958 662.557 257.469 670.891C263.979 679.224 267.234 690.161 267.234 703.703C267.234 735.214 248.094 750.969 209.812 750.969C186.115 750.969 164.891 746.021 146.141 736.125C127.651 726.229 113.328 712.167 103.172 693.938C93.0156 675.969 87.8073 655.266 87.5469 631.828C86.7656 592.245 85.9844 560.474 85.2031 536.516C84.4219 512.557 83.25 497.062 81.6875 490.031C77.7812 472.583 71.9219 459.432 64.1094 450.578C56.5573 441.724 46.5312 433.521 34.0312 425.969C21.7917 418.156 13.0677 411.255 7.85938 405.266C2.65104 399.016 0.046875 389.25 0.046875 375.969C0.046875 356.698 7.59896 342.245 22.7031 332.609C41.4531 320.891 54.7344 310.995 62.5469 302.922C70.6198 294.589 76.2188 284.042 79.3438 271.281C82.7292 258.26 84.6823 244.198 85.2031 229.094C85.724 213.729 86.5052 177.01 87.5469 118.938C88.3281 83 99.6562 54.3542 121.531 33C143.667 11.3854 173.094 0.578125 209.812 0.578125C248.094 0.578125 267.234 16.0729 267.234 47.0625C267.234 61.125 263.979 72.1927 257.469 80.2656C251.219 88.3385 243.016 93.026 232.859 94.3281C217.755 96.4115 207.208 99.5365 201.219 103.703C195.229 107.87 191.323 115.943 189.5 127.922C187.677 139.901 186.505 163.078 185.984 197.453C185.464 231.047 183.38 258.651 179.734 280.266C176.349 301.62 169.448 319.849 159.031 334.953C148.875 350.057 134.031 363.729 114.5 375.969ZM287.203 375.969C287.203 336.646 290.589 299.927 297.359 265.812C304.13 231.438 314.417 197.714 328.219 164.641C342.021 131.307 359.078 97.974 379.391 64.6406C391.63 44.3281 401.917 29.7448 410.25 20.8906C418.583 11.776 426.396 6.17708 433.688 4.09375C441.24 1.75 450.875 0.578125 462.594 0.578125C475.354 0.578125 481.734 4.09375 481.734 11.125C481.734 13.4688 475.745 27.6615 463.766 53.7031C451.786 79.4844 440.458 106.568 429.781 134.953C419.365 163.339 409.599 198.755 400.484 241.203C391.63 283.651 387.203 328.573 387.203 375.969C387.203 422.844 391.63 467.245 400.484 509.172C409.339 551.099 419.365 587.427 430.562 618.156C442.021 648.885 453.349 676.359 464.547 700.578C476.005 725.057 481.734 738.339 481.734 740.422C481.734 747.453 475.354 750.969 462.594 750.969C450.615 750.969 440.849 749.667 433.297 747.062C426.005 744.719 418.323 738.99 410.25 729.875C402.177 720.76 391.891 706.177 379.391 686.125C358.818 651.75 341.76 618.547 328.219 586.516C314.938 554.745 304.781 521.672 297.75 487.297C290.719 452.922 287.203 415.812 287.203 375.969ZM1124 375.969C1124 433.26 1116.32 486.516 1100.95 535.734C1085.85 584.953 1062.8 635.083 1031.81 686.125C1014.36 714.771 1000.56 732.74 990.406 740.031C980.25 747.323 966.448 750.969 949 750.969C935.979 750.969 929.469 747.453 929.469 740.422C929.469 738.078 934.938 725.448 945.875 702.531C956.812 679.875 968.141 652.792 979.859 621.281C991.839 589.771 1002.12 552.792 1010.72 510.344C1019.57 467.635 1024 422.844 1024 375.969C1024 328.833 1019.57 283.911 1010.72 241.203C1001.86 198.495 991.578 161.516 979.859 130.266C968.141 99.0156 956.812 71.9323 945.875 49.0156C934.938 25.8385 929.469 13.2083 929.469 11.125C929.469 4.09375 935.979 0.578125 949 0.578125C967.229 0.578125 981.292 4.09375 991.188 11.125C1001.08 17.8958 1014.62 35.7344 1031.81 64.6406C1047.18 90.1615 1060.59 115.292 1072.05 140.031C1083.51 164.771 1093.01 189.51 1100.56 214.25C1108.38 238.99 1114.23 264.771 1118.14 291.594C1122.05 318.417 1124 346.542 1124 375.969ZM1296.31 375.969C1282.25 367.115 1270.79 357.87 1261.94 348.234C1253.08 338.599 1245.79 326.88 1240.06 313.078C1234.33 299.276 1230.3 283 1227.95 264.25C1225.61 245.24 1224.44 222.974 1224.44 197.453C1224.44 172.714 1223.92 153.833 1222.88 140.812C1221.83 127.531 1219.75 117.896 1216.62 111.906C1213.5 105.917 1209.07 101.88 1203.34 99.7969C1197.88 97.4531 1189.41 95.6302 1177.95 94.3281C1168.32 93.026 1160.11 88.3385 1153.34 80.2656C1146.83 72.1927 1143.58 61.125 1143.58 47.0625C1143.58 16.0729 1162.46 0.578125 1200.22 0.578125C1224.44 0.578125 1245.66 5.52604 1263.89 15.4219C1282.38 25.0573 1296.83 38.9896 1307.25 57.2188C1317.93 75.1875 1323.4 95.7604 1323.66 118.938C1325.22 205.396 1327.04 252.922 1329.12 261.516C1333.29 278.703 1339.41 291.854 1347.48 300.969C1355.56 309.823 1365.32 317.766 1376.78 324.797C1388.24 331.568 1396.7 338.339 1402.17 345.109C1407.9 351.88 1410.77 362.167 1410.77 375.969C1410.77 395.5 1403.34 409.823 1388.5 418.938C1370.27 430.135 1356.99 440.031 1348.66 448.625C1340.58 456.958 1334.85 467.505 1331.47 480.266C1328.34 492.766 1326.39 511.646 1325.61 536.906C1325.09 562.167 1324.44 593.807 1323.66 631.828C1322.88 667.766 1311.29 696.542 1288.89 718.156C1266.76 740.031 1237.2 750.969 1200.22 750.969C1181.99 750.969 1167.93 746.932 1158.03 738.859C1148.4 730.786 1143.58 719.068 1143.58 703.703C1143.58 695.109 1145.14 687.167 1148.27 679.875C1151.39 672.844 1155.43 667.375 1160.38 663.469C1165.58 659.562 1171.44 657.219 1177.95 656.438C1189.67 654.875 1198.4 652.922 1204.12 650.578C1209.85 648.234 1214.15 643.807 1217.02 637.297C1220.14 630.786 1222.09 621.151 1222.88 608.391C1223.92 595.891 1224.44 577.531 1224.44 553.312C1224.96 517.375 1227.04 489.25 1230.69 468.938C1234.33 448.625 1241.23 431.177 1251.39 416.594C1261.55 402.01 1276.52 388.469 1296.31 375.969Z" fill="#C8CECC"/>
</svg>
